<?xml version="1.0" standalone="yes"?>
<svg xmlns="http://www.w3.org/2000/svg" width="145" height="61">
<path style="fill:#44a51d; stroke:none;" d="M0 0L0 61L64 61L64 32L59 32L59 28C63.7611 28 68.3449 27.8917 73 29L73 31L68 32L68 44C70.7831 40.3506 71.6216 36.2762 74.8272 32.5802C75.8156 31.4407 77.0624 30.1238 76.5039 28.4799C75.0735 24.2703 69.4123 23.6311 69.3611 18C69.3336 14.9676 71.5208 12.7508 72.4159 10C73.4312 6.87981 73 3.23867 73 0L0 0z"/>
<path style="fill:#112907; stroke:none;" d="M73 0L73 11C74.4309 7.59003 74.4309 3.40997 73 0z"/>
<path style="fill:#000000; stroke:none;" d="M74 0L74 10C78.6509 10.1509 81.1587 11.2705 84 15C81.2599 13.8338 78.9715 13.1901 76 13L77 18L85 18C84.5852 23.3728 81.7271 25.0114 77 27C77.7795 29.5449 77.7699 30.0651 76 32C77.9631 33.6333 80.6702 35.3406 81.2492 38.0177C82.6577 44.5298 75.5225 44.4198 72 42C64.18 46.034 66 53.2138 66 61L91 61C92.9988 46.984 102.401 47.0054 114 46.7824C124.548 46.5796 134.583 47.3446 145 48L145 0L74 0z"/>
<path style="fill:#3c3b3c; stroke:none;" d="M84 18L77 18L77 20L82 20C81.5229 20.8158 81.2687 21.8624 80.3897 22.4128C72.0645 27.6253 68.1353 11.772 77.9961 12.7731C80.0038 12.977 82.1371 14.2771 84 15C79.6965 7.00508 67.3372 10.4098 69.3989 19.9954C70.5705 25.4425 78.0066 28.5138 82.3966 24.2593C84.0892 22.6189 83.9295 20.1532 84 18z"/>
<path style="fill:#1b1b1b; stroke:none;" d="M79.6667 10.3333C79.2222 10.7778 80.2778 10.7222 80.3333 10.6667C80.7778 10.2222 79.7222 10.2778 79.6667 10.3333z"/>
<path style="fill:#1a1a1a; stroke:none;" d="M75 14L80 13C77.6996 12.0843 76.6232 12.1207 75 14z"/>
<path style="fill:#317a13; stroke:none;" d="M73.6667 13.3333C73.2222 13.7778 74.2778 13.7222 74.3333 13.6667C74.7778 13.2222 73.7222 13.2778 73.6667 13.3333z"/>
<path style="fill:#45a71d; stroke:none;" d="M72 14C72.0169 18.7829 71.9024 22.4525 77 24L77 15C75.1994 14.4382 73.8782 14.1759 72 14z"/>
<path style="fill:#101010; stroke:none;" d="M86 14L86 26C87.6792 21.9982 85.9708 17.6121 90 15C88.494 14.317 87.6852 14.1741 86 14z"/>
<path style="fill:#2d2d2d; stroke:none;" d="M90.6667 14.3333C90.2222 14.7778 91.2778 14.7222 91.3333 14.6667C91.7778 14.2222 90.7222 14.2778 90.6667 14.3333z"/>
<path style="fill:#2e2e2e; stroke:none;" d="M97 14C98.5061 14.683 99.3148 14.8259 101 15C99.494 14.317 98.6852 14.1741 97 14M109 14C110.506 14.683 111.315 14.8259 113 15C111.494 14.317 110.685 14.1741 109 14z"/>
<path style="fill:#3f3f3f; stroke:none;" d="M118 14L118 26L120 26C120.11 16.6741 125.89 16.6741 126 26C129.382 17.9415 125.622 14.5212 118 14z"/>
<path style="fill:#375d28; stroke:none;" d="M71 15L71 20C71.8299 17.9695 71.8299 17.0305 71 15z"/>
<path style="fill:#404040; stroke:none;" d="M87 15L87 26L89 26C89.0145 21.8863 88.9699 18.9673 92 16C90.231 15.2211 88.964 15.0876 87 15z"/>
<path style="fill:#252525; stroke:none;" d="M92 15L90 16C91.482 16.7912 92.7964 16.8698 92 15z"/>
<path style="fill:#3e3e3e; stroke:none;" d="M103 23C99.76 23.376 98.3481 23.2692 96 21L104 21C103.146 15.6472 94.7053 11.8889 93.412 19.0579C92.2658 25.4115 99.7381 28.0307 103 23z"/>
<path style="fill:#3f3f3f; stroke:none;" d="M116 23C112.152 23.3636 109.999 23.5382 108 20L116 20C114.925 16.4604 109.1 12.1545 106.604 17.3179C103.204 24.3513 111.399 27.6935 116 23z"/>
<path style="fill:#222222; stroke:none;" d="M98.6667 16.3333C98.2222 16.7778 99.2778 16.7222 99.3333 16.6667C99.7778 16.2222 98.7222 16.2778 98.6667 16.3333z"/>
<path style="fill:#202020; stroke:none;" d="M110.667 16.3333C110.222 16.7778 111.278 16.7222 111.333 16.6667C111.778 16.2222 110.722 16.2778 110.667 16.3333z"/>
<path style="fill:#1b1b1b; stroke:none;" d="M122.667 16.3333C122.222 16.7778 123.278 16.7222 123.333 16.6667C123.778 16.2222 122.722 16.2778 122.667 16.3333z"/>
<path style="fill:#292929; stroke:none;" d="M127 16L127 26C128.346 22.793 128.346 19.207 127 16z"/>
<path style="fill:#1e440e; stroke:none;" d="M76.3333 17.6667C76.2778 17.7222 76.2222 18.7778 76.6667 18.3333C76.7222 18.2778 76.7778 17.2222 76.3333 17.6667z"/>
<path style="fill:#141414; stroke:none;" d="M96 17C97.9468 19.2309 100.053 19.2309 102 17C99.7683 17.3628 98.2317 17.3628 96 17z"/>
<path style="fill:#000000; stroke:none;" d="M97 17C98.5061 17.683 99.3148 17.8259 101 18C99.494 17.317 98.6852 17.1741 97 17z"/>
<path style="fill:#252525; stroke:none;" d="M105 17L105 23C105.951 20.7147 105.951 19.2853 105 17z"/>
<path style="fill:#141414; stroke:none;" d="M108 17C109.947 19.2309 112.053 19.2309 114 17C111.768 17.3628 110.232 17.3628 108 17z"/>
<path style="fill:#000000; stroke:none;" d="M109 17C110.506 17.683 111.315 17.8259 113 18C111.494 17.317 110.685 17.1741 109 17z"/>
<path style="fill:#171717; stroke:none;" d="M84 18L84 24C84.9511 21.7147 84.9511 20.2853 84 18z"/>
<path style="fill:#131313; stroke:none;" d="M120 18L120 26C121.161 23.2301 121.161 20.7699 120 18z"/>
<path style="fill:#1a1a1a; stroke:none;" d="M125 18L125 26C126.161 23.2301 126.161 20.7699 125 18z"/>
<path style="fill:#000000; stroke:none;" d="M77 20L77 24C79.9361 23.3733 81.0127 22.8527 82 20L77 20z"/>
<path style="fill:#323232; stroke:none;" d="M108 20C110.613 21.0977 113.165 20.9928 116 21C113.387 19.9023 110.835 20.0072 108 20z"/>
<path style="fill:#143308; stroke:none;" d="M77.3333 21.6667C77.2778 21.7222 77.2222 22.7778 77.6667 22.3333C77.7222 22.2778 77.7778 21.2222 77.3333 21.6667z"/>
<path style="fill:#1f1f1f; stroke:none;" d="M102 22C102.545 23.6352 102.365 23.4549 104 24L104 22L102 22z"/>
<path style="fill:#212121; stroke:none;" d="M114.667 22.3333C114.222 22.7777 115.278 22.7222 115.333 22.6667C115.778 22.2222 114.722 22.2778 114.667 22.3333z"/>
<path style="fill:#357a1b; stroke:none;" d="M74 26C75.2484 26.6848 75.5484 26.7488 77 27C75.7516 26.3152 75.4516 26.2512 74 26z"/>
<path style="fill:#1b1a1b; stroke:none;" d="M77.6667 26.3333C77.2222 26.7778 78.2778 26.7222 78.3333 26.6667C78.7778 26.2222 77.7222 26.2778 77.6667 26.3333z"/>
<path style="fill:#202020; stroke:none;" d="M97 26C98.2484 26.6848 98.5484 26.7488 100 27C98.7517 26.3152 98.4516 26.2512 97 26z"/>
<path style="fill:#1f1f1f; stroke:none;" d="M110.667 26.3333C110.222 26.7778 111.278 26.7222 111.333 26.6667C111.778 26.2222 110.722 26.2778 110.667 26.3333z"/>
<path style="fill:#357d18; stroke:none;" d="M59 28L59 32L64 32L64 61C67.4105 52.8723 65 39.8136 65 31L60 31L60 29L72 29C68.0413 27.3389 63.2634 28 59 28z"/>
<path style="fill:#265d10; stroke:none;" d="M77 28L78 29L77 28z"/>
<path style="fill:#3b3b3b; stroke:none;" d="M60 29L60 31L65 31C65 35.1018 63.1472 42.9601 68 44C66.9673 39.6622 67 35.4385 67 31L72 31L72 29L60 29z"/>
<path style="fill:#367120; stroke:none;" d="M72.3333 29.6667C72.2778 29.7222 72.2222 30.7778 72.6667 30.3333C72.7222 30.2778 72.7778 29.2222 72.3333 29.6667z"/>
<path style="fill:#265b10; stroke:none;" d="M78 29L77 31L79 31C79 29.1468 79.2997 29.6498 78 29z"/>
<path style="fill:#161616; stroke:none;" d="M109 29L110 33C110.751 30.9535 110.656 30.4043 109 29z"/>
<path style="fill:#0c0c0c; stroke:none;" d="M113 29C112.155 34.7452 110.918 39.1492 112 45L117 45L117 36C115.902 38.6127 116.007 41.1645 116 44L114 44C114 39.1834 114.876 33.4714 113 29z"/>
<path style="fill:#3e3e3e; stroke:none;" d="M114 29L114 44L116 44C116.106 35.0712 121.894 35.0712 122 44C124.418 38.2377 122.904 32.7192 116 34L116 29L114 29z"/>
<path style="fill:#161616; stroke:none;" d="M116 29C116.168 31.4025 116.197 32.4602 118 34C117.449 32.1749 116.924 30.6482 116 29z"/>
<path style="fill:#3d3d3d; stroke:none;" d="M108 30C107.316 31.58 107.195 31.7772 106 33C107.378 37.4171 107.206 43.4089 112 45C110.551 41.2174 109.399 38.452 112 35L112 33C110.6 31.8699 109.584 30.7824 108 30z"/>
<path style="fill:#387d1d; stroke:none;" d="M67 31L67 43C68.4403 39.5676 68 35.7002 68 32L72 32C70.2309 31.2211 68.9641 31.0876 67 31z"/>
<path style="fill:#404040; stroke:none;" d="M75.054 33.0864C68.8694 34.3104 70.8055 45.198 76.9568 44.534C83.266 43.8529 81.6793 31.7752 75.054 33.0864z"/>
<path style="fill:#393939; stroke:none;" d="M91 44C88.4122 46.4879 86.5129 46.3342 83 46C83.7348 46.7495 84.2705 47.7281 85.321 48.1265C94.7386 51.6988 93 38.3619 93 33C90.6285 33.0084 87.5004 32.5994 85.4336 34.0278C78.8055 38.6088 86.0996 43.8404 91 44z"/>
<path style="fill:#0d0d0d; stroke:none;" d="M93 33L93 44C94.4309 40.59 94.4309 36.41 93 33z"/>
<path style="fill:#3e3e3e; stroke:none;" d="M105 41C101.235 42.2947 99.6262 42.0823 97 39L106 39C104.257 32.9919 95.4844 31.0331 95.2816 39C95.1201 45.3453 102.998 46.6944 105 41z"/>
<path style="fill:#414141; stroke:none;" d="M136 41C131.882 42.1532 129.89 42.352 127 39L136 39C134.796 33.3586 126.393 30.5244 125.507 38.0185C124.665 45.1397 132.911 46.2876 136 41z"/>
<path style="fill:#2d2d2d; stroke:none;" d="M138 33C138 36.8956 136.89 42.2825 140 45C139.008 40.8313 138.022 36.5788 142 34C140.494 33.317 139.685 33.1741 138 33z"/>
<path style="fill:#434343; stroke:none;" d="M139 34L139 44C140.7 39.9978 141.624 36.7679 144 33L139 34z"/>
<path style="fill:#000000; stroke:none;" d="M75.2639 36.1759C72.1811 37.8165 74.2634 43.6824 77.4151 41.8241C79.9551 40.3264 78.5076 34.4497 75.2639 36.1759M90 42C89.9722 41.1531 90.0682 39.7929 89.8519 38.8989C88.3939 32.8743 82.9278 38.3228 87.1582 41.3958C87.8601 41.9057 89.2997 41.8831 90 42M98 35L98 37L103 37C101.212 35.5785 100.294 35.3026 98 35z"/>
<path style="fill:#171717; stroke:none;" d="M110 35C110.01 38.0941 109.591 40.896 112 43C111.36 40.0661 111.36 37.9339 112 35L110 35z"/>
<path style="fill:#131313; stroke:none;" d="M123 35L123 45C124.346 41.793 124.346 38.207 123 35z"/>
<path style="fill:#000000; stroke:none;" d="M128 36C129.769 36.7789 131.036 36.9124 133 37C130.99 35.526 130.478 35.5355 128 36z"/>
<path style="fill:#39871a; stroke:none;" d="M70 36L70 41C70.8299 38.9695 70.8299 38.0305 70 36z"/>
<path style="fill:#1c1c1c; stroke:none;" d="M81 36L81 42C81.9511 39.7147 81.9511 38.2853 81 36z"/>
<path style="fill:#171717; stroke:none;" d="M90 36L90 41C90.8299 38.9695 90.8299 38.0305 90 36z"/>
<path style="fill:#292929; stroke:none;" d="M97 36C99.0997 38.4034 101.9 38.4034 104 36C101.408 36.5076 99.5925 36.5076 97 36z"/>
<path style="fill:#2f2f2f; stroke:none;" d="M121 36C121.003 39.3056 120.399 42.727 123 45C122.282 41.9926 122.195 38.8195 121 36z"/>
<path style="fill:#292929; stroke:none;" d="M127 36C129.1 38.4034 131.9 38.4034 134 36C131.408 36.5076 129.592 36.5076 127 36z"/>
<path style="fill:#1a1a1a; stroke:none;" d="M140 36L140 45C141.256 42.0059 141.256 38.9941 140 36z"/>
<path style="fill:#282828; stroke:none;" d="M79 37L79 41C79.7102 39.2405 79.7102 38.7595 79 37z"/>
<path style="fill:#1a1a1a; stroke:none;" d="M97 41C100.039 40.2757 102.878 40.0262 106 40C102.911 38.7041 99.3075 38.3594 97 41M127 41C130.04 40.2757 132.878 40.0262 136 40C132.911 38.7041 129.307 38.3594 127 41z"/>
<path style="fill:#191919; stroke:none;" d="M125.333 40.6667C125.278 40.7222 125.222 41.7778 125.667 41.3333C125.722 41.2778 125.778 40.2222 125.333 40.6667z"/>
<path style="fill:#102b05; stroke:none;" d="M70 41L70 43C71.6352 42.4549 71.4549 42.6352 72 41L70 41z"/>
<path style="fill:#191919; stroke:none;" d="M105.333 41.6667C105.278 41.7222 105.222 42.7778 105.667 42.3333C105.722 42.2778 105.778 41.2222 105.333 41.6667z"/>
<path style="fill:#1d1d1d; stroke:none;" d="M86 42C87.2484 42.6848 87.5484 42.7488 89 43C87.7516 42.3152 87.4516 42.2512 86 42z"/>
<path style="fill:#161616; stroke:none;" d="M99 42C100.506 42.683 101.315 42.8259 103 43C101.494 42.317 100.685 42.1741 99 42M129 42C130.506 42.683 131.315 42.8259 133 43C131.494 42.317 130.685 42.1741 129 42z"/>
<path style="fill:#245910; stroke:none;" d="M69 43L70 44L69 43z"/>
<path style="fill:#0f2607; stroke:none;" d="M65 44L65 61C67.161 55.8501 65.6867 49.5163 67 44L65 44z"/>
<path style="fill:#262626; stroke:none;" d="M85 44C86.9407 44.9509 88.8976 45.4394 91 46C89.266 43.9966 87.6451 44.077 85 44z"/>
<path style="fill:#242424; stroke:none;" d="M83.6667 45.3333C83.2222 45.7778 84.2778 45.7222 84.3333 45.6667C84.7778 45.2222 83.7222 45.2778 83.6667 45.3333z"/>
<path style="fill:#060606; stroke:none;" d="M85 45C86.7885 46.4215 87.7057 46.6974 90 47L90 45L85 45z"/>
<path style="fill:#241300; stroke:none;" d="M104.667 46.3333C104.222 46.7778 105.278 46.7222 105.333 46.6667C105.778 46.2222 104.722 46.2778 104.667 46.3333z"/>
<path style="fill:#a05700; stroke:none;" d="M106.667 46.3333C106.222 46.7778 107.278 46.7222 107.333 46.6667C107.778 46.2222 106.722 46.2778 106.667 46.3333z"/>
<path style="fill:#2a1600; stroke:none;" d="M112.667 46.3333C112.222 46.7778 113.278 46.7222 113.333 46.6667C113.778 46.2222 112.722 46.2778 112.667 46.3333z"/>
<path style="fill:#9c5500; stroke:none;" d="M117 46L118 47L117 46z"/>
<path style="fill:#ff8a00; stroke:none;" d="M95 49C93.9623 53.1801 92.1396 56.5941 92 61L145 61L145 49C128.743 46.2492 111.343 45.9208 95 49z"/>
<path style="fill:#904e00; stroke:none;" d="M119 46L120 47L119 46z"/>
<path style="fill:#261400; stroke:none;" d="M124 46C125.769 46.7789 127.036 46.9124 129 47C127.231 46.2211 125.964 46.0876 124 46M135 46C136.506 46.6831 137.315 46.8259 139 47C137.494 46.317 136.685 46.1741 135 46z"/>
<path style="fill:#623500; stroke:none;" d="M98 47C100.052 47.8742 101.747 47.9528 104 48C101.948 47.1257 100.253 47.0472 98 47z"/>
<path style="fill:#613400; stroke:none;" d="M110.667 47.3333C110.222 47.7778 111.278 47.7222 111.333 47.6667C111.778 47.2222 110.722 47.2778 110.667 47.3333z"/>
<path style="fill:#713d00; stroke:none;" d="M114.667 47.3333C114.222 47.7778 115.278 47.7222 115.333 47.6667C115.778 47.2222 114.722 47.2778 114.667 47.3333z"/>
<path style="fill:#653700; stroke:none;" d="M122.667 47.3333C122.222 47.7778 123.278 47.7222 123.333 47.6667C123.778 47.2222 122.722 47.2778 122.667 47.3333z"/>
<path style="fill:#3e2100; stroke:none;" d="M129 47C130.769 47.7789 132.036 47.9124 134 48C132.231 47.2211 130.964 47.0876 129 47z"/>
<path style="fill:#a95c00; stroke:none;" d="M134 47L135 48L134 47z"/>
<path style="fill:#743f00; stroke:none;" d="M139 47L140 48L139 47z"/>
<path style="fill:#ad5f00; stroke:none;" d="M96.6667 48.3333C96.2222 48.7778 97.2778 48.7222 97.3333 48.6667C97.7778 48.2222 96.7222 48.2778 96.6667 48.3333z"/>
<path style="fill:#a35800; stroke:none;" d="M141 48C142.506 48.6831 143.315 48.8259 145 49C143.494 48.317 142.685 48.1741 141 48z"/>
<path style="fill:#663800; stroke:none;" d="M94 50L95 51L94 50z"/>
<path style="fill:#cf7000; stroke:none;" d="M94.3333 51.6667C94.2778 51.7222 94.2222 52.7778 94.6667 52.3333C94.7222 52.2778 94.7778 51.2222 94.3333 51.6667z"/>
<path style="fill:#ca6d00; stroke:none;" d="M91 56L91 61C91.8299 58.9695 91.8299 58.0305 91 56z"/>
</svg>
